<svg width="24" height="24" fill="none" xmlns="http://www.w3.org/2000/svg"><path fill-rule="evenodd" clip-rule="evenodd" d="M3 5.4a2.4 2.4 0 114.8 0 2.4 2.4 0 01-4.8 0zm0 6.602a2.4 2.4 0 114.8 0 2.4 2.4 0 01-4.8 0zM14.402 5.4a2.4 2.4 0 10-4.8 0 2.4 2.4 0 004.8 0zm-4.8 6.602a2.4 2.4 0 114.8 0 2.4 2.4 0 01-4.8 0zM21.003 5.4a2.4 2.4 0 10-4.8 0 2.4 2.4 0 004.8 0zm-4.8 6.602a2.4 2.4 0 114.8 0 2.4 2.4 0 01-4.8 0zM7.8 18.599a2.4 2.4 0 10-4.8 0 2.4 2.4 0 004.8 0zm1.802 0a2.4 2.4 0 114.8 0 2.4 2.4 0 01-4.8 0zm11.401 0a2.4 2.4 0 10-4.8 0 2.4 2.4 0 004.8 0z" fill="#18191B"/></svg>