<svg width="40" height="40" fill="none" xmlns="http://www.w3.org/2000/svg"><circle cx="20" cy="20" r="20" fill="#fff"/><g clip-path="url(#clip0_945_11683)"><path d="M29.601 15.153a2.514 2.514 0 00-1.768-1.78c-1.563-.42-7.813-.42-7.813-.42s-6.25 0-7.814.42a2.514 2.514 0 00-1.768 1.78C10.02 16.723 10.02 20 10.02 20s0 3.275.418 4.845a2.514 2.514 0 001.768 1.78c1.564.42 7.814.42 7.814.42s6.25 0 7.813-.42a2.514 2.514 0 001.768-1.78c.419-1.57.419-4.845.419-4.845s0-3.275-.419-4.846z" fill="#18191B"/><path d="M17.977 22.975v-5.948l5.227 2.974-5.227 2.974z" fill="#FEFEFE"/></g><defs><clipPath id="clip0_945_11683"><path fill="#fff" transform="translate(10 10)" d="M0 0h20v20H0z"/></clipPath></defs></svg>