<svg width="40" height="40" fill="none" xmlns="http://www.w3.org/2000/svg"><path d="M20 40c11.046 0 20-8.954 20-20S31.046 0 20 0 0 8.954 0 20s8.954 20 20 20z" fill="#fff"/><path fill-rule="evenodd" clip-rule="evenodd" d="M10.428 19.79c4.922-2.117 8.203-3.513 9.845-4.187 4.688-1.925 5.663-2.26 6.297-2.27.14-.003.452.03.655.193a.7.7 0 01.24.451c.022.13.05.425.028.656-.254 2.636-1.353 9.031-1.912 11.983-.237 1.249-.703 1.668-1.154 1.709-.98.089-1.725-.64-2.674-1.255-1.486-.961-2.326-1.56-3.768-2.498-1.666-1.084-.586-1.68.364-2.654.248-.255 4.568-4.134 4.651-4.486.01-.044.02-.208-.078-.295-.099-.086-.245-.057-.35-.033-.149.033-2.522 1.582-7.12 4.647-.674.456-1.284.679-1.831.667-.603-.013-1.762-.336-2.624-.613-1.058-.34-1.898-.519-1.825-1.095.039-.3.457-.607 1.256-.92z" fill="#18191B"/></svg>