<svg width="40" height="40" fill="none" xmlns="http://www.w3.org/2000/svg"><circle cx="20" cy="20" r="20" fill="#fff"/><path fill-rule="evenodd" clip-rule="evenodd" d="M20.9 25.79s.331-.038.5-.227c.156-.172.15-.498.15-.498s-.02-1.523.662-1.747c.673-.221 1.536 1.472 2.453 2.123.692.492 1.217.384 1.217.384l2.45-.035s1.28-.082.672-1.125c-.05-.085-.354-.771-1.82-2.181-1.536-1.476-1.33-1.238.52-3.79 1.126-1.555 1.576-2.505 1.435-2.91-.134-.389-.962-.286-.962-.286l-2.757.018s-.204-.029-.356.065c-.148.092-.244.306-.244.306s-.435 1.203-1.017 2.227c-1.228 2.158-1.718 2.273-1.92 2.139-.466-.313-.35-1.256-.35-1.926 0-2.092.307-2.964-.596-3.19-.3-.075-.52-.124-1.287-.133-.983-.01-1.816.004-2.287.243-.314.159-.556.513-.408.534.182.025.594.115.813.423.283.399.273 1.292.273 1.292s.162 2.463-.38 2.769c-.37.21-.88-.218-1.975-2.177a18.515 18.515 0 01-.984-2.112s-.081-.207-.227-.319c-.177-.134-.424-.176-.424-.176l-2.619.017s-.393.011-.538.189c-.128.157-.01.483-.01.483s2.051 4.97 4.373 7.475c2.13 2.296 4.548 2.145 4.548 2.145H20.9z" fill="#18191B"/></svg>