<svg width="40" height="40" fill="none" xmlns="http://www.w3.org/2000/svg"><circle cx="20" cy="20" r="20" fill="#fff"/><path fill-rule="evenodd" clip-rule="evenodd" d="M20.19 16.88l.034.578-.572-.071c-2.082-.27-3.901-1.189-5.446-2.73l-.755-.766-.194.565c-.412 1.26-.15 2.59.709 3.484.458.494.354.565-.435.27-.274-.093-.515-.164-.538-.129-.08.083.195 1.154.412 1.578.298.588.904 1.165 1.568 1.506l.56.27-.663.012c-.641 0-.664.012-.595.26.229.764 1.132 1.576 2.14 1.93l.708.247-.617.376a6.35 6.35 0 01-3.066.871c-.515.012-.938.06-.938.094 0 .118 1.395.777 2.207 1.036 2.437.765 5.332.436 7.505-.87 1.545-.93 3.09-2.778 3.81-4.567.39-.954.778-2.696.778-3.531 0-.542.034-.612.675-1.26.378-.376.732-.788.8-.906.115-.223.104-.223-.48-.023-.972.353-1.11.306-.629-.224.355-.377.778-1.06.778-1.26 0-.035-.172.024-.366.13-.206.118-.664.294-1.007.4l-.618.2-.56-.388c-.309-.212-.744-.447-.973-.518-.583-.165-1.475-.141-2.002.047-1.43.53-2.334 1.895-2.23 3.39z" fill="#18191B"/></svg>