<svg width="40" height="40" viewBox="0 0 40 40" fill="none" xmlns="http://www.w3.org/2000/svg">
<circle cx="20" cy="20" r="20" fill="white"/>
<path fill-rule="evenodd" clip-rule="evenodd" d="M20.9002 25.79C20.9002 25.79 21.2311 25.7519 21.4006 25.5634C21.5557 25.3906 21.5503 25.0646 21.5503 25.0646C21.5503 25.0646 21.5297 23.5424 22.2121 23.3176C22.8846 23.0966 23.7481 24.7897 24.6645 25.4408C25.3568 25.933 25.8822 25.8253 25.8822 25.8253L28.3311 25.79C28.3311 25.79 29.6115 25.7083 29.0045 24.6653C28.9542 24.5798 28.6503 23.8935 27.1842 22.4836C25.6482 21.0078 25.8544 21.2465 27.7034 18.6933C28.8296 17.1386 29.2797 16.1894 29.139 15.7835C29.0054 15.3953 28.1768 15.4984 28.1768 15.4984L25.4204 15.516C25.4204 15.516 25.216 15.4872 25.0644 15.581C24.9165 15.673 24.8205 15.8875 24.8205 15.8875C24.8205 15.8875 24.3847 17.0903 23.8028 18.1138C22.5752 20.2722 22.0848 20.3865 21.8839 20.2527C21.4167 19.9397 21.5333 18.997 21.5333 18.3274C21.5333 16.2349 21.84 15.3628 20.937 15.1371C20.6375 15.0619 20.4169 15.0126 19.6503 15.0043C18.6666 14.9941 17.8345 15.008 17.3628 15.2467C17.049 15.4055 16.8069 15.7603 16.9548 15.7807C17.1369 15.8058 17.5493 15.8959 17.7681 16.2042C18.0506 16.6027 18.0407 17.4961 18.0407 17.4961C18.0407 17.4961 18.203 19.9592 17.6614 20.2648C17.2902 20.4747 16.7809 20.0465 15.686 18.0878C15.1256 17.0847 14.7024 15.9758 14.7024 15.9758C14.7024 15.9758 14.6208 15.7686 14.4746 15.6572C14.2979 15.5225 14.0514 15.4807 14.0514 15.4807L11.4321 15.4984C11.4321 15.4984 11.0385 15.5095 10.8941 15.6869C10.7659 15.8439 10.8843 16.1699 10.8843 16.1699C10.8843 16.1699 12.935 21.1397 15.2574 23.6446C17.387 25.9405 19.8045 25.79 19.8045 25.79H20.9002Z" fill="#18191B"/>
</svg>
