<svg width="24" height="24" viewBox="0 0 24 24" fill="none" xmlns="http://www.w3.org/2000/svg">
<path fill-rule="evenodd" clip-rule="evenodd" d="M3 5.4C3 4.07452 4.07452 3 5.4 3C6.72548 3 7.8 4.07452 7.8 5.4C7.8 6.72548 6.72548 7.8 5.4 7.8C4.07452 7.8 3 6.72548 3 5.4ZM3 12.0016C3 10.6761 4.07452 9.60156 5.4 9.60156C6.72548 9.60156 7.8 10.6761 7.8 12.0016C7.8 13.327 6.72548 14.4016 5.4 14.4016C4.07452 14.4016 3 13.327 3 12.0016ZM14.4016 5.4C14.4016 4.07452 13.327 3 12.0016 3C10.6761 3 9.60156 4.07452 9.60156 5.4C9.60156 6.72548 10.6761 7.8 12.0016 7.8C13.327 7.8 14.4016 6.72548 14.4016 5.4ZM9.60156 12.0016C9.60156 10.6761 10.6761 9.60156 12.0016 9.60156C13.327 9.60156 14.4016 10.6761 14.4016 12.0016C14.4016 13.327 13.327 14.4016 12.0016 14.4016C10.6761 14.4016 9.60156 13.327 9.60156 12.0016ZM21.0031 5.4C21.0031 4.07452 19.9286 3 18.6031 3C17.2776 3 16.2031 4.07452 16.2031 5.4C16.2031 6.72548 17.2776 7.8 18.6031 7.8C19.9286 7.8 21.0031 6.72548 21.0031 5.4ZM16.2031 12.0016C16.2031 10.6761 17.2776 9.60156 18.6031 9.60156C19.9286 9.60156 21.0031 10.6761 21.0031 12.0016C21.0031 13.327 19.9286 14.4016 18.6031 14.4016C17.2776 14.4016 16.2031 13.327 16.2031 12.0016ZM7.8 18.5992C7.8 17.2737 6.72548 16.1992 5.4 16.1992C4.07452 16.1992 3 17.2737 3 18.5992C3 19.9247 4.07452 20.9992 5.4 20.9992C6.72548 20.9992 7.8 19.9247 7.8 18.5992ZM9.60156 18.5992C9.60156 17.2737 10.6761 16.1992 12.0016 16.1992C13.327 16.1992 14.4016 17.2737 14.4016 18.5992C14.4016 19.9247 13.327 20.9992 12.0016 20.9992C10.6761 20.9992 9.60156 19.9247 9.60156 18.5992ZM21.0031 18.5992C21.0031 17.2737 19.9286 16.1992 18.6031 16.1992C17.2776 16.1992 16.2031 17.2737 16.2031 18.5992C16.2031 19.9247 17.2776 20.9992 18.6031 20.9992C19.9286 20.9992 21.0031 19.9247 21.0031 18.5992Z" fill="#18191B"/>
</svg>
