<svg width="40" height="40" viewBox="0 0 40 40" fill="none" xmlns="http://www.w3.org/2000/svg">
<circle cx="20" cy="20" r="20" fill="white"/>
<g clip-path="url(#clip0_945_11683)">
<path d="M29.6014 15.1531C29.4883 14.7276 29.2654 14.3393 28.9551 14.027C28.6448 13.7147 28.2579 13.4894 27.8332 13.3736C26.2695 12.9531 20.0195 12.9531 20.0195 12.9531C20.0195 12.9531 13.7695 12.9531 12.2059 13.3736C11.7811 13.4894 11.3942 13.7147 11.0839 14.027C10.7736 14.3393 10.5508 14.7276 10.4377 15.1531C10.0195 16.7236 10.0195 19.9986 10.0195 19.9986C10.0195 19.9986 10.0195 23.2736 10.4377 24.844C10.5508 25.2695 10.7736 25.6579 11.0839 25.9702C11.3942 26.2825 11.7811 26.5078 12.2059 26.6236C13.7695 27.044 20.0195 27.044 20.0195 27.044C20.0195 27.044 26.2695 27.044 27.8332 26.6236C28.2579 26.5078 28.6448 26.2825 28.9551 25.9702C29.2654 25.6579 29.4883 25.2695 29.6014 24.844C30.0195 23.2736 30.0195 19.9986 30.0195 19.9986C30.0195 19.9986 30.0195 16.7236 29.6014 15.1531Z" fill="#18191B"/>
<path d="M17.9766 22.9751V17.0273L23.2038 20.0012L17.9766 22.9751Z" fill="#FEFEFE"/>
</g>
<defs>
<clipPath id="clip0_945_11683">
<rect width="20" height="20" fill="white" transform="translate(10 10)"/>
</clipPath>
</defs>
</svg>
