<svg width="40" height="40" viewBox="0 0 40 40" fill="none" xmlns="http://www.w3.org/2000/svg">
<path d="M20 40C31.0457 40 40 31.0457 40 20C40 8.95431 31.0457 0 20 0C8.95431 0 0 8.95431 0 20C0 31.0457 8.95431 40 20 40Z" fill="white"/>
<path fill-rule="evenodd" clip-rule="evenodd" d="M10.4283 19.7894C15.3496 17.6726 18.6312 16.277 20.2732 15.6028C24.9614 13.6776 25.9356 13.3432 26.5705 13.3321C26.7102 13.3297 27.0224 13.3639 27.2247 13.5259C27.3954 13.6627 27.4424 13.8476 27.4649 13.9773C27.4874 14.107 27.5154 14.4025 27.4932 14.6334C27.2391 17.2688 26.1398 23.6642 25.5806 26.6159C25.3439 27.8648 24.878 28.2836 24.4269 28.3246C23.4465 28.4137 22.7021 27.685 21.7526 27.0705C20.2668 26.1089 19.4274 25.5103 17.9852 24.572C16.3185 23.4877 17.3989 22.8917 18.3488 21.9176C18.5974 21.6627 22.9168 17.7839 23.0004 17.432C23.0108 17.388 23.0206 17.224 22.9218 17.1374C22.8231 17.0508 22.6774 17.0804 22.5723 17.1039C22.4233 17.1373 20.0497 18.6862 15.4516 21.7506C14.7779 22.2073 14.1676 22.4299 13.6209 22.4182C13.0181 22.4053 11.8586 22.0817 10.9967 21.8051C9.93949 21.4658 9.09924 21.2864 9.17241 20.7102C9.21052 20.4101 9.62915 20.1032 10.4283 19.7894Z" fill="#18191B"/>
</svg>
