<svg width="40" height="40" viewBox="0 0 40 40" fill="none" xmlns="http://www.w3.org/2000/svg">
<circle cx="20" cy="20" r="20" fill="white"/>
<path fill-rule="evenodd" clip-rule="evenodd" d="M20.1895 16.8809L20.2238 17.4576L19.6517 17.3869C17.5696 17.1162 15.7506 16.1982 14.2061 14.6564L13.451 13.8914L13.2565 14.4563C12.8447 15.7157 13.1078 17.0456 13.9658 17.9401C14.4235 18.4344 14.3205 18.505 13.5311 18.2108C13.2565 18.1167 13.0163 18.046 12.9934 18.0813C12.9133 18.1637 13.1879 19.2348 13.4053 19.6585C13.7027 20.2469 14.3091 20.8236 14.9726 21.1649L15.5332 21.4356L14.8696 21.4474C14.229 21.4474 14.2061 21.4592 14.2747 21.7063C14.5035 22.4714 15.4073 23.2835 16.4141 23.6365L17.1234 23.8837L16.5056 24.2603C15.5904 24.8017 14.515 25.1077 13.4396 25.1313C12.9248 25.143 12.5015 25.1901 12.5015 25.2254C12.5015 25.3431 13.8972 26.0022 14.7095 26.2611C17.1463 27.0261 20.0407 26.6966 22.2144 25.3902C23.7589 24.4604 25.3033 22.6126 26.0241 20.8236C26.4131 19.8703 26.802 18.1284 26.802 17.2928C26.802 16.7514 26.8364 16.6808 27.477 16.0335C27.8546 15.6568 28.2092 15.2449 28.2779 15.1272C28.3923 14.9036 28.3808 14.9036 27.7974 15.1037C26.8249 15.4568 26.6876 15.4097 27.1681 14.88C27.5228 14.5034 27.9461 13.8208 27.9461 13.6207C27.9461 13.5854 27.7745 13.6443 27.58 13.7502C27.3741 13.8679 26.9164 14.0444 26.5732 14.1503L25.9554 14.3504L25.3949 13.962C25.086 13.7502 24.6512 13.5148 24.4224 13.4442C23.839 13.2794 22.9466 13.3029 22.4203 13.4913C20.9903 14.0209 20.0865 15.3861 20.1895 16.8809Z" fill="#18191B"/>
</svg>
